PathFileType	4	(X/Y/Z)	3_1_tpose_p1_0-251.trc
DataRate	CameraRate	NumFrames	NumMarkers	Units	OrigDataRate	OrigDataStartFrame	OrigNumFrames
59.0	59.0	6	27	m	59.0	157	252
Frame#	Time	RHip			RKnee			RAnkle			RBigToe			RSmallToe			RHeel			LHip			LKnee			LAnkle			LBigToe			LSmallToe			LHeel			Neck			Head			Nose			RShoulder			RElbow			RWrist			RThumb			RIndex			RPinky			LShoulder			LElbow			LWrist			LThumb			LIndex			LPinky			
		X1	Y1	Z1	X2	Y2	Z2	X3	Y3	Z3	X4	Y4	Z4	X5	Y5	Z5	X6	Y6	Z6	X7	Y7	Z7	X8	Y8	Z8	X9	Y9	Z9	X10	Y10	Z10	X11	Y11	Z11	X12	Y12	Z12	X13	Y13	Z13	X14	Y14	Z14	X15	Y15	Z15	X16	Y16	Z16	X17	Y17	Z17	X18	Y18	Z18	X19	Y19	Z19	X20	Y20	Z20	X21	Y21	Z21	X22	Y22	Z22	X23	Y23	Z23	X24	Y24	Z24	X25	Y25	Z25	X26	Y26	Z26	X27	Y27	Z27	
157	2.6610169491525424	0.22256358982570018	0.37998575279560576	0.942424470591633	0.2004264103433215	0.4192955188562742	1.3407781699508123	0.15332228757722338	0.5054739503452547	1.7963477098241578	0.16915774778149312	0.2810915401149514	1.8131526127717015	0.23465806908261957	0.3600236032173006	1.8464807494087485	0.1425460120307906	0.5212626692541772	1.841349464628375	-0.0013522677016767999	0.36844215384434664	0.9324950418402957	0.010232668972877366	0.3871037053815446	1.329044931076472	0.010804601993392386	0.43916302264605134	1.7558057247355945	0.019216138059752454	0.28906975062912693	1.838993775799623	-0.04653615602388259	0.31383986540629355	1.8210915243754244	0.018663681818048197	0.485915676598968	1.8322881510046047	0.10871267501689767	0.35570664970896826	0.3503637232123813	0.1379103899642192	0.26501290617616696	0.09370665527028978	0.1338110925434498	0.220658308775691	0.24373319511715388	0.29061970360440353	0.3754925609271591	0.43470807538415973	0.5314757944028685	0.4282428730519597	0.49087077305375043	0.7818794693634831	0.4512623936286968	0.5094790457202116	0.922300522031123	0.4645154370534526	0.5647407747496396	0.9472598595466079	0.5047652094478254	0.5739095363060316	0.8934655679481515	0.4510119394569341	0.5726240606840096	-0.06828491272835273	0.32443610848366905	0.41115450557752303	-0.29499358184742147	0.3620924428744911	0.4459367373689201	-0.5557192950235886	0.3505295619437784	0.4455357764175859	-0.645960133340273	0.2919477827292503	0.45336348236559815	-0.6876226562716702	0.33025422833108803	0.42537477637957416	-0.6970192226104589	0.3948557448970748	0.435522549543561
158	2.6779661016949152	0.22291698260937576	0.37888642614964274	0.9460808691815373	0.19973079862929338	0.4174606840968654	1.3357641734948584	0.15337962127097043	0.5054177951583577	1.796311166162173	0.16922174789504504	0.2809709618786133	1.8131867323925057	0.23480951954428803	0.3598972685825195	1.846476374266364	0.14142383331146577	0.5215309378391905	1.846604537587103	-0.0013495597911491394	0.36890064357321045	0.9322862592349935	0.009085333471221717	0.38680801169940854	1.320287999788063	0.009870079065855235	0.43959284417018857	1.7606756711108262	0.025216529413255737	0.27471794972076413	1.82990461817907	-0.047100937534029115	0.31175812927380525	1.815455618923734	0.014824821861132658	0.5167151622295153	1.8502679018064598	0.10868076981901835	0.35548670634444823	0.3503143639583438	0.1379057320369914	0.26494232515393945	0.09367038774628636	0.1338044439739984	0.2206051745712267	0.2437361630074749	0.29061605382372635	0.37531456456812	0.4347789846667748	0.5314098169741046	0.42795877055618753	0.49090486617898144	0.7818316073148254	0.4514342322522982	0.5094927304726473	0.9170176349249987	0.4792225271487374	0.5673867037796613	0.9437986868882354	0.5043673663312892	0.577389898516526	0.8933576535964872	0.450989090903763	0.5724350556310788	-0.06832335075047158	0.32442666432017475	0.41105925099465723	-0.2948191249146406	0.36270932419775365	0.44278264230583947	-0.5557361002231099	0.35053904233155714	0.44558603977603745	-0.6427510849519644	0.2961610863680787	0.4539049443687218	-0.6887769475991529	0.3443372075426583	0.4270076757264644	-0.6971667553948472	0.39532813469033323	0.4351156025825744
159	2.694915254237288	0.2225215446918184	0.38009188733110616	0.9424608929700288	0.19972828786613694	0.41751373964053007	1.3356601800310088	0.15333570751899514	0.5054809679709402	1.7962554160816724	0.16928992385405678	0.28105907542184266	1.8132110935023131	0.22979423757574396	0.37498020532490955	1.8560207960711292	0.1424310051589835	0.5213684325572228	1.8416227579687452	-0.0013572270213677998	0.36875168296475086	0.9322634004697844	0.009509251959605582	0.38532765931255397	1.3237598782672166	0.010403367741681793	0.4376112183517195	1.750253820811127	0.025255095227931103	0.27454419199280916	1.8297674256987666	-0.04718083548936994	0.31168153647217595	1.8154789791293555	0.015025001655425979	0.5170926300749159	1.850253873215514	0.10865695209686613	0.35547750118630506	0.3502951548856031	0.13786877067174108	0.26496922041129706	0.0936189830265181	0.13376077234514586	0.22049113593737465	0.24372463679904818	0.2866409328213217	0.373386113093526	0.4346047495911279	0.5313180006206187	0.427941572973036	0.4908327352635458	0.7777085967672525	0.45026097117019853	0.5094251078590315	0.9206862691419698	0.4801380215477524	0.5672174936507168	0.9438270983152159	0.5048408752229796	0.5733043166922852	0.8934391571953676	0.4510341287955071	0.5724229309772553	-0.06673603931851842	0.33619161809071263	0.41225655521785726	-0.29473988399412804	0.3624483613474047	0.44264406842496434	-0.5557123972215005	0.35037771902908915	0.4455470610493026	-0.6426275608035009	0.2959292705830899	0.4538945168253149	-0.6875700957963823	0.3305739264576518	0.425533799011935	-0.6971740336115494	0.3953142291263068	0.4349974983937061
160	2.711864406779661	0.2228264116533187	0.3790880935180019	0.9461750097308764	0.199658000228227	0.4174744163318318	1.335701463018537	0.15337006595522407	0.5056193768934815	1.7962164870535402	0.1692207441251847	0.28126413858137483	1.8133536470011613	0.2296914223690206	0.3751436487687466	1.8560489639378048	0.14251420060016182	0.5215959037001705	1.841440660662605	-0.005064553526549056	0.3667757507568141	0.9317829194719273	0.0094649571813639	0.3852587439407277	1.3237161589299027	0.010175442027210687	0.4376243027088291	1.7503231901601635	0.02523114463919848	0.27447829064929463	1.829879167285225	-0.04727373320277248	0.31165034487478777	1.8158144494923725	0.0148654556307549	0.5169712151933427	1.8501302419624805	0.10865141183314991	0.35552230975247956	0.35030830213289665	0.13790061914745028	0.26495120531154825	0.09364835185663126	0.1337628499896141	0.22057290970054244	0.24372926765114206	0.28664791508234166	0.3733881863792959	0.4346112660154607	0.5313218820988256	0.4278788544495677	0.49085228938710707	0.7818365626821258	0.45141305162349865	0.5094791965651374	0.9207552675709592	0.4802487464875512	0.567168865151969	0.9439407232421991	0.5050943759281947	0.5732203753130949	0.8941496935941342	0.45242944053974227	0.5757967416826603	-0.0683193903697889	0.32442018823377405	0.4110928912590689	-0.2949659597272043	0.3620571921367381	0.44595622255141326	-0.5556305109746036	0.3502296673130713	0.4454871544147984	-0.6425810379150309	0.2956803620197983	0.4539152880690457	-0.687506965273376	0.33049159768868275	0.4255418578752488	-0.6967323493443143	0.39375101023985903	0.4313969088215043
161	2.7288135593220337	0.22280660627774893	0.37902569760916693	0.9462687857939801	0.20074367956299577	0.4180535166690717	1.3447553467220021	0.15335186583448474	0.5055430248103914	1.7962795023390274	0.1716801952494117	0.2942704852510923	1.8207841416082733	0.2297953684952085	0.3750978398922157	1.8559985518990636	0.1412984356471689	0.5214905320673988	1.8465114799907358	-0.0048274958854372385	0.36575170667261203	0.9354735068940999	0.009614817082819086	0.3853926800329664	1.3239417869278292	0.010282356211208607	0.4379071599388269	1.7504000696767157	0.025279652679806752	0.2746191669478566	1.8298952283111547	-0.047256345805310254	0.3116295488975455	1.8157906754339441	0.014926008640846056	0.5171407015888055	1.8501597643686616	0.10861504441621321	0.3556315152761777	0.35035404397556014	0.13790937238600223	0.2649886732957287	0.09368283001570875	0.13377721889897626	0.22067699534753182	0.24375838029064878	0.2865737857740687	0.3732557792013812	0.4346190405656435	0.5312313553328374	0.427683974321639	0.4907934991797523	0.7818059323299202	0.4513229572349216	0.509433875291986	0.9207636362453735	0.4797678956327188	0.5672969600241786	0.9470932250283944	0.5054206375668372	0.570216733697678	0.8939305960485155	0.45306291586717934	0.5725240250270544	-0.0682732903829386	0.3241697194265041	0.4110340709459171	-0.2946399147209552	0.36255373032100807	0.4426409696558288	-0.5556575497055861	0.3504574769395672	0.44553794489649223	-0.6423930198214334	0.29475652970752036	0.45016866623638896	-0.6874983361829248	0.3306703573713098	0.42559099327394223	-0.697023363700797	0.3951776383361454	0.4352866139380816
162	2.7457627118644066	0.22273741162896052	0.3790496185090982	0.9463028901709611	0.20074918268464778	0.4179862461259177	1.3446354348950076	0.1533577132476505	0.5055758630650142	1.7962683116662717	0.17173307583346586	0.29407540910666985	1.8206999058487023	0.2348638466866578	0.36011542099615695	1.846609793702202	0.14243006154799037	0.5213528836204472	1.8415994911802613	-0.005151544144136601	0.36641136190828777	0.9321250581819498	0.010065570038123684	0.38726743125356267	1.3291987409252064	0.010871709522131519	0.4399909095359353	1.7561157809278842	0.02533236269745034	0.2742433838970776	1.8298229235566792	-0.04725892897419155	0.3115055987097533	1.815992379154801	0.01461680373368425	0.5172823405090411	1.850456922620038	0.10862024015388838	0.3555488493702985	0.35030579500077563	0.1378961172759596	0.2651105345866818	0.09370098718461252	0.13380091149868126	0.22065825934870026	0.24374049371986856	0.2866323490114423	0.3734250097819546	0.43464182318362327	0.5313505140400132	0.4277885725766634	0.4907877484773302	0.7818850294527899	0.4512712589577206	0.5093957165090373	0.9155232633557114	0.4685831421519316	0.5656830575062106	0.9471363635538317	0.5052390424880657	0.5702001047511196	0.893171791416355	0.4518400445239255	0.5691432252549348	-0.06830724962197297	0.3241922778081453	0.41106927358133866	-0.2947069473498466	0.3625657976664854	0.442608884945284	-0.5556789179090268	0.3505066973857482	0.44554720888889365	-0.6426191941477496	0.29613011505575504	0.45406158579730893	-0.6873427231933308	0.3300833714221457	0.4254509821488265	-0.696599825587914	0.393341988163729	0.43179045588534304
